# xmcd
#
# Track frame offsets: 
#        150
#        16609
#        36771
#        56120
#        74625
#        93381
#        111161
#        131686
#        149849
#        168525
#        183821
#        202246
#
# Disc length: 2959 seconds
#
# Revision: 5
# Processed by: cddbd v1.5.2PL0 Copyright (c) Steve Scherf et al.
# Submitted via: ExactAudioCopy v1.0b4
#
DISCID=b60b8d0c
DTITLE=Flavio Jose - Pra Amar E Ser Feliz
DYEAR=2004
DGENRE=Forró
TTITLE0=Utopia Sertaneja
TTITLE1=Cabresto
TTITLE2=Pra Amar E Ser Feliz
TTITLE3=Frutificando
TTITLE4=Chuva
TTITLE5=Festejos De Beija-Flor
TTITLE6=A Natureza Das Coisas
TTITLE7=Sem Destino E Sem Concerto
TTITLE8=Apaixonado Por Você
TTITLE9=Meu Coco Tem
TTITLE10=Vida Boa Aperriada
TTITLE11=Forro Na Gameleira
EXTD=YEAR: 2004
EXTT0=
EXTT1=
EXTT2=
EXTT3=
EXTT4=
EXTT5=
EXTT6=
EXTT7=
EXTT8=
EXTT9=
EXTT10=
EXTT11=
PLAYORDER=
